Coordinates
version=1
nRows=32
nColumns=12
inDegrees=yes

Units are S.I. units (second, meters, Newtons, ...)
Angles are in degrees

endheader
time	SC_y	SC_z	SC_x	AC_y	AC_z	AC_x	GH_y	GH_z	GH_yy	EL_x	PS_y
       0.0              -25.96          20.06          18.93          30.98          7.844          18.47          156.5          42.72          118.9           51.3          125.1
  0.006666              -25.97          20.06          18.93          30.99          7.845          18.46          156.5          42.72          118.9          51.29          125.1
   0.01333              -25.97          20.07          18.92          30.99          7.845          18.46          156.5          42.71          118.9          51.29          125.1
      0.02              -25.97          20.07          18.92          30.99          7.845          18.46          156.5          42.71          118.8          51.28          125.1
   0.02666              -25.98          20.07          18.92          30.99          7.845          18.45          156.4           42.7          118.8          51.28          125.1
   0.03333              -25.98          20.07          18.92           31.0          7.845          18.45          156.4          42.69          118.8          51.27          125.1
      0.04              -25.99          20.07          18.91           31.0          7.845          18.45          156.4          42.68          118.8          51.27          125.1
   0.04666              -25.99          20.07          18.91           31.0          7.845          18.44          156.4          42.67          118.8          51.26          125.1
   0.05333               -26.0          20.07          18.91           31.0          7.845          18.44          156.3          42.67          118.8          51.25          125.1
   0.05999               -26.0          20.08           18.9          31.01          7.845          18.43          156.3          42.66          118.8          51.24          125.1
   0.06666              -26.01          20.08           18.9          31.01          7.845          18.43          156.2          42.65          118.8          51.23          125.1
   0.07333              -26.01          20.08           18.9          31.01          7.845          18.42          156.2          42.63          118.8          51.23          125.2
   0.07999              -26.02          20.08          18.89          31.02          7.846          18.42          156.2          42.62          118.8          51.22          125.2
   0.08666              -26.03          20.09          18.89          31.02          7.846          18.41          156.1          42.61          118.8           51.2          125.2
   0.09332              -26.03          20.09          18.88          31.03          7.846           18.4          156.1           42.6          118.8          51.19          125.2
   0.09999              -26.04          20.09          18.88          31.03          7.846          18.39          156.0          42.58          118.8          51.18          125.2
    0.1067              -26.05          20.09          18.87          31.04          7.846          18.38          155.9          42.56          118.7          51.17          125.2
    0.1133              -26.06           20.1          18.87          31.04          7.846          18.38          155.9          42.55          118.7          51.15          125.2
      0.12              -26.07           20.1          18.86          31.05          7.847          18.36          155.8          42.53          118.7          51.13          125.2
    0.1267              -26.08          20.11          18.85          31.06          7.847          18.35          155.7           42.5          118.7          51.12          125.2
    0.1333              -26.09          20.11          18.85          31.06          7.847          18.34          155.6          42.48          118.7           51.1          125.2
      0.14              -26.11          20.12          18.84          31.07          7.847          18.33          155.5          42.45          118.7          51.08          125.2
    0.1467              -26.12          20.12          18.83          31.08          7.848          18.31          155.4          42.43          118.6          51.05          125.2
    0.1533              -26.14          20.13          18.82          31.09          7.848           18.3          155.3          42.39          118.6          51.03          125.3
      0.16              -26.16          20.13           18.8           31.1          7.848          18.28          155.2          42.36          118.6           51.0          125.3
    0.1666              -26.18          20.14          18.79          31.12          7.849          18.26          155.0          42.32          118.6          50.96          125.3
    0.1733               -26.2          20.15          18.78          31.13          7.849          18.23          154.9          42.27          118.5          50.93          125.3
      0.18              -26.23          20.16          18.76          31.15           7.85          18.21          154.7          42.22          118.5          50.88          125.3
    0.1866              -26.26          20.17          18.74          31.17           7.85          18.18          154.5          42.17          118.5          50.84          125.4
    0.1933              -26.29          20.19          18.72          31.19          7.851          18.14          154.2           42.1          118.4          50.78          125.4
       0.2              -26.33           20.2          18.69          31.21          7.852          18.11          153.9          42.03          118.4          50.72          125.4
    0.2066              -26.38          20.22          18.67          31.24          7.852          18.06          153.6          41.95          118.3          50.65          125.5
